<?xml version="1.0" encoding="UTF-8"?>
<svg xmlns="http://www.w3.org/2000/svg" width="1024" height="682" viewBox="0 0 1024 682" version="1.1" role="img" aria-label="Anastelle Immo" preserveAspectRatio="xMidYMid meet">
	<path d="M 432.048 237.449 C 429.633 240.020, 429.832 243, 432.419 243 C 433.234 243, 434.260 242.368, 434.700 241.595 C 435.479 240.228, 437.208 239.641, 439.750 239.882 C 441.893 240.085, 441.119 244.539, 438.516 246.985 C 436.086 249.268, 435.951 249.282, 432.266 247.636 C 430.195 246.711, 427.600 245.777, 426.500 245.562 C 425.400 245.346, 420.789 243.847, 416.253 242.229 C 406.506 238.754, 405.576 239.206, 405.777 247.314 C 405.848 250.166, 405.665 251.938, 405.370 251.250 C 405.075 250.563, 403.971 250, 402.917 250 C 401.178 250, 401 250.790, 401 258.500 C 401 267.133, 401.845 268.755, 404.800 265.800 C 405.733 264.867, 406.003 266.033, 406.015 271.050 C 406.024 274.598, 406.361 277.950, 406.765 278.500 C 407.169 279.050, 410.875 279.500, 415 279.500 C 423.936 279.500, 430.119 281.827, 429.319 284.889 C 428.724 287.163, 430.733 288.667, 432.287 287.113 C 432.899 286.501, 434.664 286, 436.209 286 C 437.858 286, 440.291 284.865, 442.104 283.250 C 444.434 281.174, 446.240 280.493, 449.474 280.473 C 451.831 280.458, 454.488 279.840, 455.379 279.100 C 457.073 277.694, 457.675 271, 456.107 271 C 455.616 271, 454.965 270.352, 454.661 269.560 C 454.279 268.565, 455.251 267.758, 457.804 266.949 C 459.837 266.306, 462.019 265.127, 462.654 264.330 C 463.872 262.799, 465.607 264.209, 464.570 265.886 C 463.932 266.920, 467.287 267.967, 471.298 267.986 C 473.010 267.995, 474.994 267.030, 476.412 265.500 L 478.729 263 543.865 263 C 586.622 263, 609 263.344, 609 264 C 609 265.031, 608.337 265.194, 603.903 265.247 C 602.475 265.265, 600.789 266.108, 600.156 267.121 C 599.181 268.683, 599.356 269.051, 601.306 269.541 C 602.572 269.858, 606.058 269.979, 609.053 269.809 C 614.393 269.506, 614.506 269.436, 614.813 266.250 C 615.125 263.013, 616.300 262.058, 617.527 264.044 C 617.882 264.618, 617.678 265.683, 617.074 266.411 C 614.933 268.991, 618.649 270.482, 626.377 270.144 C 630.295 269.972, 633.819 269.528, 634.208 269.157 C 635.676 267.760, 633.198 265.921, 629.420 265.602 C 627.264 265.421, 624.938 265.211, 624.250 265.136 C 623.563 265.061, 623 264.536, 623 263.969 C 623 263.306, 626.657 263.062, 633.250 263.284 C 648.252 263.789, 665.032 262.558, 666.099 260.875 C 668.419 257.212, 667.876 257.020, 655.340 257.068 C 650.687 257.085, 646.900 256.648, 646.531 256.049 C 645.728 254.751, 641 254.651, 641 255.933 C 641 256.501, 609.211 256.895, 559.580 256.942 L 478.160 257.018 476.213 254.543 C 475.142 253.182, 474.063 252.270, 473.817 252.517 C 473.570 252.764, 471.926 252.552, 470.164 252.047 C 468.403 251.542, 467.166 251.460, 467.416 251.864 C 467.666 252.269, 467 253.144, 465.935 253.808 C 464.767 254.538, 464 254.617, 464 254.008 C 464 252.129, 459.826 252.949, 459.308 254.931 C 458.714 257.201, 456.988 256.804, 452.263 253.311 C 447.301 249.643, 446.350 247.206, 448.889 244.667 C 450.482 243.073, 451.255 242.855, 452.147 243.747 C 453.007 244.607, 453.022 245.269, 452.204 246.254 C 451.593 246.990, 451.164 248.532, 451.251 249.682 C 451.391 251.535, 451.696 251.645, 453.954 250.656 C 457.174 249.245, 457.966 248.130, 457.985 244.972 C 458.011 240.644, 452.744 237.386, 448.395 239.040 C 446.189 239.879, 445.515 239.653, 443.831 237.512 C 441.105 234.047, 435.273 234.016, 432.048 237.449 M 411 251.928 L 411 257.856 420.201 255.393 C 429.028 253.031, 430.828 252.348, 429.917 251.707 C 429.087 251.123, 413.027 246, 412.027 246 C 411.440 246, 411 248.540, 411 251.928 M 440.655 252.829 C 439.745 253.835, 439 255.133, 439 255.715 C 439 256.887, 444.462 257.954, 447.028 257.282 C 448.397 256.924, 448.217 256.374, 445.932 253.927 C 442.706 250.473, 442.774 250.487, 440.655 252.829 M 411 267.977 C 411 273.536, 411.190 274.132, 412.750 273.464 C 413.712 273.051, 416.525 272.069, 419 271.281 C 421.475 270.494, 424.850 269.252, 426.500 268.522 L 429.500 267.196 424.519 264.949 C 421.780 263.713, 417.617 262.486, 415.269 262.221 L 411 261.740 411 267.977 M 431.813 262.683 C 432.534 262.972, 433.397 262.936, 433.729 262.604 C 434.061 262.272, 433.471 262.036, 432.417 262.079 C 431.252 262.127, 431.015 262.364, 431.813 262.683 M 443 262.878 C 443 263.360, 443.679 264.319, 444.509 265.008 C 445.736 266.026, 447.001 265.874, 451.259 264.195 L 456.500 262.130 449.750 262.065 C 446.038 262.029, 443 262.395, 443 262.878 M 429.417 272.531 C 423.503 274.778, 423.502 274.779, 426.315 275.889 C 427.863 276.500, 429.663 277.014, 430.315 277.032 C 430.967 277.049, 432.374 277.724, 433.441 278.532 C 435.887 280.382, 437.749 280.394, 439.571 278.571 C 441.594 276.549, 441.379 275.668, 438.167 272.807 L 435.334 270.283 429.417 272.531 M 448.071 271.956 C 447.322 272.419, 446.985 273.519, 447.323 274.399 C 448.073 276.354, 452 276.542, 452 274.622 C 452 272.575, 449.650 270.980, 448.071 271.956 M 494.953 282.750 C 494.626 288.033, 495.068 357.402, 495.432 357.765 C 496.456 358.789, 504.901 358.969, 505.512 357.980 C 506.063 357.089, 506.193 341.032, 506.037 293.250 L 506 282 500.500 282 C 497.475 282, 494.979 282.337, 494.953 282.750 M 522.712 282.622 C 521.757 283.577, 521.794 357.962, 522.750 358.140 C 525.182 358.593, 531.727 358.781, 533 358.434 C 534.311 358.077, 534.437 353.266, 534 320.263 L 533.500 282.500 528.462 282.205 C 525.690 282.043, 523.103 282.230, 522.712 282.622 M 226.937 293.686 C 225.197 297.434, 222.742 302.750, 221.480 305.500 C 220.218 308.250, 217.119 314.939, 214.593 320.364 C 212.067 325.788, 210 330.420, 210 330.655 C 210 331.164, 205.038 341.959, 200.754 350.770 C 199.078 354.218, 197.905 357.239, 198.149 357.482 C 198.393 357.726, 200.495 358.164, 202.820 358.456 C 207.562 359.052, 206.816 359.986, 211.585 347.500 C 213.056 343.650, 215.112 338.587, 216.155 336.250 L 218.050 332 229.366 332 L 240.682 332 243.294 338.750 C 244.731 342.462, 246.183 346.512, 246.520 347.750 C 246.858 348.988, 247.519 350, 247.988 350 C 248.457 350, 249.161 351.456, 249.552 353.236 C 249.943 355.015, 250.991 357.026, 251.881 357.704 C 253.496 358.934, 262.168 359.499, 263.223 358.443 C 263.984 357.682, 260.819 348, 259.809 348 C 259.364 348, 259 347.501, 259 346.891 C 259 345.903, 252.199 329.359, 248.562 321.500 C 245.334 314.525, 238.498 299.179, 236.311 294 C 232.446 284.846, 231.061 284.799, 226.937 293.686 M 687.917 287.399 C 687.688 287.618, 683.900 288.044, 679.500 288.346 C 656.797 289.902, 641.393 295.536, 634.250 304.897 C 631.479 308.528, 631 309.979, 631 314.744 C 631 317.818, 631.297 320.036, 631.661 319.673 C 632.024 319.309, 632.812 319.974, 633.411 321.149 C 634.932 324.135, 640.749 327, 645.289 327 C 652.922 327, 661.415 321.174, 662.629 315.105 C 662.971 313.397, 663.630 312, 664.094 312 C 664.558 312, 664.676 311.319, 664.357 310.487 C 664.037 309.655, 664.341 308.294, 665.031 307.463 C 665.721 306.632, 665.996 305.663, 665.643 305.309 C 665.289 304.956, 665 305.222, 665 305.901 C 665 306.648, 664.267 306.902, 663.141 306.545 C 660.813 305.806, 659.444 307.483, 658.615 312.090 C 656.490 323.905, 638.269 325.666, 638.734 314.011 C 638.987 307.669, 646.085 300.243, 653.669 298.385 C 655.226 298.004, 656.741 297.329, 657.035 296.885 C 657.755 295.798, 675.027 292.774, 682.500 292.426 C 688.399 292.151, 688.458 292.175, 686.024 293.823 C 678.677 298.798, 667.920 311.577, 662.497 321.772 C 649.082 346.990, 636.915 357.494, 623.282 355.625 C 618.723 355, 615 353.146, 615 351.500 C 615 350.940, 615.900 349.919, 617 349.232 C 619.661 347.570, 619.702 342.446, 617.066 341.035 C 614.252 339.529, 611.803 339.814, 609.250 341.944 C 604.403 345.987, 607.592 355.678, 614.755 358.671 C 621.367 361.434, 635.407 360.416, 641.879 356.704 C 647.029 353.751, 653.094 348.975, 655.931 345.640 C 657.268 344.067, 658.850 342.267, 659.445 341.640 C 660.039 341.013, 661.293 339.375, 662.230 338 C 663.168 336.625, 665.299 333.572, 666.967 331.215 C 668.635 328.858, 670 326.527, 670 326.036 C 670 325.545, 670.578 324.548, 671.284 323.821 C 671.990 323.095, 673.871 320.250, 675.464 317.500 C 679.128 311.174, 687.282 299.974, 689.676 297.979 C 692.470 295.649, 699.103 292.699, 703 292.053 C 705.641 291.616, 706.578 290.924, 706.820 289.237 C 707.131 287.057, 706.899 287, 697.736 287 C 692.565 287, 688.146 287.179, 687.917 287.399 M 419.750 297.568 C 415.062 300.006, 415 300.103, 415 304.956 C 415 309.773, 414.934 309.880, 411.750 310.187 C 408.858 310.465, 408.507 310.831, 408.563 313.500 C 408.622 316.261, 408.881 316.475, 411.813 316.186 L 415 315.872 415 333.322 C 415 351.902, 415.559 354.602, 420.058 357.753 C 423.167 359.931, 433.032 359.864, 436.421 357.644 C 437.840 356.714, 439 355.017, 439 353.873 C 439 352.009, 438.556 351.846, 434.746 352.312 C 431.923 352.658, 429.837 352.354, 428.544 351.409 C 426.752 350.098, 426.593 348.650, 426.548 333.242 L 426.500 316.500 430.750 316.372 C 433.087 316.302, 435 316.639, 435 317.122 C 435 318.484, 436.726 318.156, 437.290 316.687 C 437.567 315.964, 437.567 314.186, 437.290 312.735 C 436.833 310.346, 436.303 310.069, 431.679 309.799 L 426.573 309.500 426.536 302.590 C 426.516 298.790, 426.050 295.550, 425.500 295.390 C 424.950 295.230, 422.363 296.210, 419.750 297.568 M 228.258 306.234 C 227.701 306.930, 226.915 308.625, 226.511 310 C 226.108 311.375, 225.181 313.850, 224.451 315.500 C 223.722 317.150, 222.445 320.188, 221.614 322.250 L 220.102 326 229.026 326 C 237.883 326, 237.944 325.983, 237.045 323.750 C 230.831 308.306, 229.201 305.056, 228.258 306.234 M 293 307.652 C 289.622 308.765, 286.373 310.520, 284.250 312.379 C 282.003 314.346, 282 314.346, 282 312.174 C 282 310.183, 281.494 310, 276 310 L 270 310 270 334 C 270 347.200, 270.337 358.045, 270.750 358.100 C 276.271 358.838, 281.197 358.642, 281.554 357.670 C 281.790 357.026, 282.100 348.563, 282.242 338.862 C 282.497 321.432, 282.530 321.198, 285 319.077 C 290.100 314.698, 293.712 314.490, 299.017 318.268 C 301.487 320.026, 301.502 320.134, 301.834 338.761 C 302.047 350.652, 302.560 357.728, 303.241 358.149 C 304.122 358.693, 309.686 358.682, 313.356 358.129 C 313.827 358.058, 314.014 349.337, 313.771 338.750 C 313.311 318.668, 312.716 315.768, 308.221 311.700 C 304.322 308.171, 297.185 306.273, 293 307.652 M 339 307.912 C 333.251 309.171, 328.233 311.696, 327.038 313.929 C 325.611 316.596, 326.682 322.667, 328.580 322.667 C 329.361 322.667, 330 322.151, 330 321.521 C 330 320.891, 331.462 319.279, 333.250 317.938 C 335.725 316.081, 337.743 315.500, 341.714 315.500 C 348.113 315.500, 350.038 317.156, 350.725 323.251 C 351.294 328.299, 351.982 327.849, 339.584 330.541 C 328.092 333.036, 322.961 337.348, 322.212 345.142 C 321.658 350.908, 324.354 355.953, 329.256 358.327 C 334.181 360.713, 344.724 360.045, 348.882 357.084 L 352.135 354.768 354.106 356.884 C 356.067 358.989, 357.772 359.378, 363.500 359.029 C 369.850 358.642, 372.300 352, 366.093 352 C 363.329 352, 363.074 351.679, 362.433 347.399 C 362.053 344.868, 362.021 339.580, 362.361 335.649 C 363.120 326.867, 361.766 316.892, 359.386 313.737 C 355.840 309.035, 346.307 306.311, 339 307.912 M 383.120 308.109 C 372.999 311.150, 368.193 321.067, 372.579 329.858 C 374.162 333.030, 382.064 337.795, 388.366 339.377 C 392.351 340.377, 397 344.039, 397 346.177 C 397 348.809, 394.043 351.831, 390.238 353.087 C 387.532 353.980, 386.217 353.862, 383.205 352.458 C 381.167 351.508, 378.695 349.892, 377.711 348.866 C 375.065 346.107, 374.252 346.547, 373.473 351.159 C 372.859 354.796, 373.065 355.540, 375.116 357.088 C 377.863 359.160, 387.452 360.495, 392.194 359.466 C 397.168 358.387, 402.619 354.915, 404.598 351.564 C 405.569 349.921, 406.394 346.456, 406.431 343.864 C 406.536 336.666, 403.578 333.561, 391.849 328.558 C 389.841 327.701, 387.764 327, 387.234 327 C 385.163 327, 381 322.738, 381 320.619 C 381 316.436, 383.407 314.491, 388.453 314.597 C 392.960 314.691, 397 317.225, 397 319.958 C 397 320.531, 397.698 321, 398.551 321 C 400.057 321, 403 315.488, 403 312.668 C 403 309.538, 389.027 306.334, 383.120 308.109 M 458 307.649 C 451.393 308.796, 445.113 313.565, 441.411 320.246 C 438.794 324.969, 438.502 326.410, 438.521 334.500 C 438.543 344.048, 439.273 346.079, 444.932 352.342 C 449.722 357.642, 454.570 359.435, 464 359.396 C 476.393 359.345, 483 355.579, 483 348.566 C 483 345.346, 482.527 345.362, 477.639 348.750 C 474.178 351.149, 472.720 351.500, 466.221 351.500 L 458.771 351.500 455.014 347.266 C 451.274 343.051, 449.208 337.392, 450.822 335.778 C 451.288 335.312, 458.606 334.892, 467.084 334.845 C 475.563 334.797, 483.346 334.316, 484.379 333.775 C 488.075 331.841, 485.021 318.788, 479.611 313.396 C 475.360 309.159, 465.070 306.423, 458 307.649 M 562.500 307.893 C 553.539 310.200, 547.705 315.919, 544.980 325.069 C 542.540 333.262, 542.543 334.987, 545.016 342.379 C 546.620 347.173, 552.621 355.734, 555.040 356.680 C 555.293 356.779, 556.850 357.433, 558.500 358.135 C 560.150 358.836, 565.325 359.407, 570 359.404 C 580.547 359.397, 585.636 357.099, 587.572 351.469 C 589.234 346.635, 587.731 346.136, 581.499 349.450 C 574.136 353.365, 565.141 352.675, 560.647 347.851 C 558.630 345.687, 554.713 335.954, 555.529 335.137 C 555.800 334.866, 563.365 334.574, 572.340 334.487 C 581.315 334.400, 589.243 333.968, 589.957 333.526 C 590.911 332.937, 591.089 331.101, 590.627 326.612 C 589.858 319.139, 586.257 313.468, 580.289 310.332 C 575.669 307.905, 567.049 306.723, 562.500 307.893 M 457.261 315.215 C 456.030 315.810, 454.477 317.804, 453.810 319.648 C 453.144 321.491, 452.207 323, 451.730 323 C 451.252 323, 451.005 324.012, 451.180 325.250 C 451.488 327.413, 451.940 327.511, 462.837 327.784 L 474.174 328.067 473.480 324.910 C 472.445 320.199, 469.219 315.293, 466.715 314.621 C 463.480 313.754, 459.813 313.985, 457.261 315.215 M 563 315.273 C 560.533 316.499, 557.448 321.606, 556.822 325.500 C 556.518 327.388, 557.136 327.516, 567.870 327.784 C 577.996 328.037, 579.172 327.891, 578.620 326.452 C 578.279 325.563, 578 323.714, 578 322.341 C 578 320.917, 576.746 318.592, 575.077 316.923 C 571.854 313.700, 567.390 313.090, 563 315.273 M 701.134 321.632 C 699.282 322.440, 697.539 322.872, 697.260 322.593 C 696.980 322.314, 695.931 323.078, 694.928 324.293 L 693.104 326.500 693.668 324.250 C 694.193 322.160, 693.905 322, 689.617 322 C 687.077 322, 685 322.431, 685 322.959 C 685 324.033, 665.079 354.172, 663.769 355.080 C 663.309 355.399, 663.221 356.411, 663.573 357.330 C 664.350 359.353, 670.833 359.637, 673.158 357.750 C 674.005 357.063, 676.631 353.688, 678.994 350.250 C 681.357 346.813, 683.622 344, 684.028 344 C 684.434 344, 685.014 343.055, 685.316 341.899 C 685.619 340.743, 686.345 340.095, 686.933 340.458 C 687.520 340.821, 688 340.471, 688 339.681 C 688 337.599, 700.859 326, 703.167 326 C 704.240 326, 704.958 326.337, 704.762 326.750 C 704.566 327.163, 703.768 328.850, 702.989 330.500 C 700.528 335.712, 697.885 339.047, 696.766 338.355 C 696.064 337.922, 695.883 338.444, 696.249 339.845 C 696.560 341.032, 696.405 341.751, 695.907 341.442 C 695.408 341.134, 695 341.429, 695 342.097 C 695 342.765, 692.878 346.417, 690.284 350.213 C 685.045 357.882, 685.279 358.956, 692.197 358.985 C 695.601 358.999, 696.189 358.546, 699.642 353.250 C 703.508 347.321, 709.933 339.159, 713.572 335.553 C 719.737 329.445, 724.229 326, 726.029 326 C 727.984 326, 727.996 326.108, 726.393 329.250 C 725.480 331.038, 722.514 335.341, 719.800 338.813 C 717.087 342.286, 714.244 346.891, 713.484 349.047 C 712.168 352.775, 712.224 353.113, 714.639 355.983 C 716.669 358.395, 717.964 359, 721.102 359 C 724.797 359, 728.737 357.542, 730.111 355.665 C 730.447 355.206, 730.975 355.798, 731.285 356.980 C 731.756 358.784, 732.461 359.079, 735.667 358.815 C 739.127 358.530, 739.870 357.914, 743.544 352.289 C 745.775 348.872, 748.771 344.764, 750.201 343.159 C 751.631 341.554, 753.311 339.287, 753.935 338.121 C 754.560 336.954, 755.730 336, 756.535 336 C 757.341 336, 758 335.498, 758 334.885 C 758 331.983, 768.881 324.548, 770.605 326.272 C 771.460 327.126, 767.721 334.449, 763.250 340.675 C 762.013 342.399, 761 344.302, 761 344.904 C 761 345.507, 760.605 346, 760.121 346 C 759.638 346, 758.683 347.350, 758 349 C 757.317 350.650, 756.434 352, 756.039 352 C 754.967 352, 753.239 356.313, 753.735 357.750 C 753.978 358.455, 755.823 359, 757.964 359 C 761.560 359, 762.018 358.619, 766.630 351.772 C 772.372 343.250, 772.159 343.516, 780.578 334.313 C 784.907 329.581, 788.176 326.901, 790.148 326.468 C 791.795 326.106, 793.309 325.976, 793.512 326.178 C 793.715 326.381, 792.670 328.400, 791.190 330.664 C 789.711 332.928, 786.919 337.193, 784.986 340.140 C 779.947 347.825, 779 349.711, 779 352.063 C 779 354.869, 784.201 359.961, 786.606 359.509 C 787.648 359.313, 789.487 359.119, 790.693 359.077 C 791.899 359.034, 795.612 356.477, 798.943 353.392 L 805 347.785 805 350.837 C 805 352.610, 805.998 355.049, 807.383 356.659 C 809.445 359.056, 810.488 359.424, 815.133 359.397 C 818.939 359.375, 822.008 358.590, 825.687 356.698 C 831.170 353.878, 837.543 348.016, 838.540 344.875 C 838.867 343.844, 839.519 343, 839.988 343 C 840.457 343, 841.138 341.650, 841.500 339.999 C 842.124 337.158, 842.273 337.078, 844.302 338.499 C 849.717 342.292, 861 337.928, 861 332.042 C 861 329.499, 858.552 329.382, 856.807 331.841 C 854.491 335.105, 851.164 336.311, 848.043 335.018 C 845.291 333.878, 843.965 332.050, 842.046 326.750 C 840.977 323.801, 835.689 320.010, 832.634 320.004 C 831.608 320.002, 828.491 320.788, 825.707 321.750 C 820.431 323.574, 811.438 331.462, 805.470 339.500 C 798.840 348.429, 789.131 356.464, 787.247 354.580 C 786.464 353.797, 790.396 346.836, 795.200 340.500 C 797.285 337.750, 798.993 334.938, 798.996 334.250 C 798.998 333.563, 799.414 333, 799.921 333 C 800.427 333, 801.142 331.632, 801.509 329.959 C 802.291 326.397, 800.161 322.486, 796.540 320.836 C 793.516 319.458, 786.266 322.073, 782.117 326.039 L 779.213 328.814 778.623 325.863 C 778.187 323.684, 777.102 322.523, 774.477 321.426 C 771.226 320.067, 770.553 320.104, 766.590 321.857 C 764.208 322.911, 761.948 324.274, 761.570 324.887 C 761.192 325.499, 760.403 326, 759.819 326 C 759.121 326, 759.160 325.512, 759.933 324.581 C 761.587 322.587, 758.988 321.286, 754.417 321.820 C 751.829 322.122, 750.620 322.869, 749.976 324.563 C 749.047 327.006, 742.929 336.082, 739.907 339.500 C 731.530 348.974, 723.640 355.514, 721.891 354.433 C 720.880 353.808, 723.062 348.667, 725.567 345.772 C 736.369 333.289, 738.397 324.064, 731.012 321.005 C 728.296 319.880, 727.358 319.936, 724.280 321.403 C 722.313 322.342, 718.807 324.663, 716.489 326.563 C 712.589 329.759, 712.302 329.848, 712.646 327.758 C 713.055 325.269, 711.627 323.158, 708.244 321.250 C 705.590 319.753, 705.418 319.762, 701.134 321.632 M 827.500 326.386 C 824.818 327.590, 819 333.153, 819 334.513 C 819 334.804, 817.909 336.721, 816.575 338.771 C 813.677 343.225, 811.655 350.338, 812.516 353.049 C 812.944 354.399, 814.038 355, 816.065 355 C 819.714 355, 825.709 349.783, 830.697 342.268 C 833.685 337.768, 834.295 335.938, 834.388 331.189 C 834.486 326.200, 834.254 325.472, 832.500 325.270 C 831.400 325.143, 829.150 325.646, 827.500 326.386 M 346.613 335.214 C 339.944 336.606, 335.104 339.930, 334.417 343.590 C 333.557 348.176, 334.607 350.595, 338.085 352.035 C 341.877 353.606, 348.444 351.907, 350.029 348.946 C 350.613 347.855, 350.958 344.137, 350.795 340.683 L 350.500 334.403 346.613 335.214" stroke="none" fill="#C8B89A" fill-rule="evenodd"/>
</svg>